PathFileType	4	(X/Y/Z)	G:\TennisProject\Miami_Dimitrov_Sinner_masked_Sports2D\Miami_Dimitrov_Sinner_masked_Sports2D_m_person00.trc
DataRate	CameraRate	NumFrames	NumMarkers	Units	OrigDataRate	OrigDataStartFrame	OrigNumFrames
25	25	8	22	m	25	436	499
Frame#	Time	Hip			RHip			RKnee			RAnkle			RBigToe			RSmallToe			RHeel			LHip			LKnee			LAnkle			LBigToe			LSmallToe			LHeel			Neck			Head			Nose			RShoulder			RElbow			RWrist			LShoulder			LElbow			LWrist		
		X1	Y1	Z1	X2	Y2	Z2	X3	Y3	Z3	X4	Y4	Z4	X5	Y5	Z5	X6	Y6	Z6	X7	Y7	Z7	X8	Y8	Z8	X9	Y9	Z9	X10	Y10	Z10	X11	Y11	Z11	X12	Y12	Z12	X13	Y13	Z13	X14	Y14	Z14	X15	Y15	Z15	X16	Y16	Z16	X17	Y17	Z17	X18	Y18	Z18	X19	Y19	Z19	X20	Y20	Z20	X21	Y21	Z21	X22	Y22	Z22
436	17.44	15.970390440128341	0.8580934908620445	0.0	15.863451894470128	0.8338346943749207	0.0	15.870520574501692	0.4474075549423321	0.0	15.909599346041208	0.05214555445856453	0.0	15.925103978160239	-0.06128865337731533	0.0	15.86413151493688	-0.06035194314864081	0.0	15.938113765845827	-0.004128516123654623	0.0	16.092370079561093	0.8614633349308402	0.0	16.209044681162393	0.4469724824117552	0.0	16.408711971106833	0.11938938385675453	0.0	16.481102609910895	-0.015640415165533286	0.0	16.523074905006236	0.015255637584940479	0.0	16.41320292465964	0.05900680496896481	0.0	15.888488576821109	1.3884381667837404	0.0	15.864704003955302	1.6947325589533826	0.0	15.876291575921428	1.5098321354502033	0.0	15.711447819606535	1.3049729948127307	0.0	15.622501520597014	1.0635976559220541	0.0	15.738102221532944	0.8931789096524566	0.0	16.072695196916243	1.3594880324782703	0.0	16.174607575489112	1.1377988475458782	0.0	16.14965273462105	0.9652039166654229	0.0
437	17.48	16.093739349891806	0.8266203455043746	0.0	15.979967362832213	0.8101319309516319	0.0	15.940047641588867	0.43746874136745584	0.0	15.957464649725424	0.034060877858275815	0.0	15.936767810475333	-0.06570082413390702	0.0	15.890339218470952	-0.06417509537896982	0.0	15.986808882818032	-0.02577924676531848	0.0	16.22006590386154	0.831920048614196	0.0	16.387564280371738	0.42711439374005933	0.0	16.650281713708083	0.09694677582551603	0.0	16.75128174455906	-0.04155232473113115	0.0	16.790590512446165	-0.009782418652938147	0.0	16.67091149230293	0.035134210851477395	0.0	16.022784424566563	1.3255926839756171	0.0	15.995153619613813	1.642158677350892	0.0	16.010521462476326	1.451738417076714	0.0	15.845621218527063	1.2482809489122795	0.0	15.75460843619062	0.997416531785673	0.0	15.881228605655421	0.8513346187143246	0.0	16.20449065424253	1.3028322694777446	0.0	16.288926150684148	1.0598633890158713	0.0	16.24451027604025	0.8907011434642962	0.0
438	17.52	16.22604305567278	0.8035888449283284	0.0	16.108584900394483	0.7932209674301938	0.0	15.991898879220177	0.4473944884197334	0.0	15.972726537841817	0.0313617838146264	0.0	15.929699596313228	-0.06665631626631204	0.0	15.890831545463989	-0.06555878822175051	0.0	15.995555503781786	-0.03219221819417717	0.0	16.35051477420869	0.806073418243323	0.0	16.562104901844886	0.4196564118993177	0.0	16.846449826156686	0.08690876196472293	0.0	16.972336590527938	-0.05917434762086745	0.0	17.012483196832942	-0.02989155809076813	0.0	16.874397411307708	0.020912670511752187	0.0	16.170077390257266	1.2761894822890278	0.0	16.142070628870236	1.5970514701355953	0.0	16.1572754387884	1.4037429644762647	0.0	15.991220954100223	1.2031900389833077	0.0	15.902553892948783	0.9481205464877397	0.0	16.0345479332679	0.8247509817805413	0.0	16.350048751478937	1.2495313099149143	0.0	16.418562344401035	1.0060800674048807	0.0	16.34821420262018	0.844497737210716	0.0
439	17.56	16.372276168285453	0.7823627539029464	0.0	16.25188523494087	0.7725286899023626	0.0	16.064583570732367	0.44067201005673773	0.0	15.977187401293838	0.025804109543460258	0.0	15.916347562781768	-0.07405743840697598	0.0	15.87838337242993	-0.06882132919088217	0.0	15.988374454202498	-0.038858190275696626	0.0	16.49378187542816	0.7789521668853614	0.0	16.739124241369616	0.4149250651955904	0.0	17.00443975078496	0.06596002507973191	0.0	17.13533040921967	-0.07853890721729927	0.0	17.17533821485254	-0.0495108604924939	0.0	17.02649393694648	-0.003537924240765614	0.0	16.33640289315241	1.256880831023184	0.0	16.313858927758414	1.5637437885844228	0.0	16.32790794104737	1.3789942463608555	0.0	16.15623292730078	1.1787083819118669	0.0	16.071921538114015	0.9197635506453277	0.0	16.212179362117258	0.8163331726558382	0.0	16.517622963637127	1.213036769409968	0.0	16.583887810222972	0.9728575440690695	0.0	16.496961946084955	0.8243552885173253	0.0
440	17.6	16.52879990701883	0.7633077337367015	0.0	16.399599558399377	0.7476587112864719	0.0	16.1876271601487	0.40243086952853085	0.0	15.985374602754124	0.02720956678758442	0.0	15.906084366226123	-0.08277490488071941	0.0	15.870370873417777	-0.06387316723758095	0.0	15.9817759759601	-0.03082622037190754	0.0	16.649914405199368	0.7571015249498957	0.0	16.912299445160247	0.41603200490784464	0.0	17.11610524931029	0.023559716869599928	0.0	17.241773536277652	-0.10740270146913039	0.0	17.27598995924415	-0.07685935689507778	0.0	17.117598641694173	-0.0466729130840005	0.0	16.52030608245357	1.2542535997685695	0.0	16.500011874110058	1.544817879341819	0.0	16.519068658619773	1.372603488523556	0.0	16.3387183193381	1.1653115699671883	0.0	16.254153969419836	0.9010126105678161	0.0	16.422704691808068	0.8098455143657015	0.0	16.702584585524164	1.1988617324586757	0.0	16.775378233206094	0.9637616821279114	0.0	16.700533221982866	0.8253260383208453	0.0
441	17.64	16.6848452498318	0.7510074148628773	0.0	16.546759060814708	0.7284053327216937	0.0	16.356444132051877	0.35403477880415946	0.0	16.024039149875165	0.05231911977573019	0.0	15.930147244569994	-0.07806260159270612	0.0	15.901974957947887	-0.0431951864359749	0.0	16.005180418472314	0.008887203095417346	0.0	16.807545207530616	0.7445521428253165	0.0	17.061198596417086	0.42223610293509634	0.0	17.16993387209432	-0.016979026670521587	0.0	17.297916414168537	-0.12896542157384017	0.0	17.32113282171508	-0.10122248473265591	0.0	17.14525285011933	-0.08416621591955452	0.0	16.712193184943267	1.2518465239701646	0.0	16.68946129388063	1.5364558646497746	0.0	16.71431265962818	1.3710685027258454	0.0	16.53174082471173	1.1569303074141009	0.0	16.437568978263027	0.8880152120869096	0.0	16.626972180524167	0.7977138494287263	0.0	16.89013114591925	1.1984698156618068	0.0	16.95452633342356	0.9765808084965828	0.0	16.92040554556131	0.8451323521087	0.0
442	17.68	16.83570000105589	0.737517344694572	0.0	16.699541157462598	0.7149940779771726	0.0	16.545546534244938	0.31250452332650613	0.0	16.130420971832404	0.09359122664116373	0.0	16.035589755862553	-0.05558076841118135	0.0	16.014255430323995	-0.012898798866644216	0.0	16.09839595100414	0.07097948469871246	0.0	16.95604065685028	0.7319045238577195	0.0	17.17687294229236	0.4224153941898595	0.0	17.185279031059707	-0.03504905574406169	0.0	17.312732714205286	-0.13241079312159357	0.0	17.324567996498278	-0.10760533495647193	0.0	17.145114226286964	-0.09555758968049242	0.0	16.90011599182261	1.2423454753347742	0.0	16.879056688206365	1.5233364419136746	0.0	16.900985448080984	1.3643627316410332	0.0	16.723309815269456	1.1493740124921723	0.0	16.60994985935628	0.8800870207924225	0.0	16.792754099390482	0.7748395574266306	0.0	17.068198145619423	1.1922538395865852	0.0	17.104248177857293	0.9812693733294325	0.0	17.104237910036893	0.8570950994374901	0.0
443	17.72	16.988437380003273	0.707754489856375	0.0	16.866629904752468	0.6880175663357196	0.0	16.747336492747465	0.27431309498892686	0.0	16.32039644851225	0.12059841195596263	0.0	16.24374255674591	-0.03646799912433685	0.0	16.222662404041472	0.0074266542263881005	0.0	16.277290569345954	0.12319342329297799	0.0	17.09800577772282	0.7018937170393681	0.0	17.269541468290537	0.4052226529601378	0.0	17.1923948105994	-0.036885236489434786	0.0	17.308350730389137	-0.12929659534082089	0.0	17.308507252495204	-0.09902609121778215	0.0	17.148268144258868	-0.09036954425462639	0.0	17.077717558433953	1.2185423457329199	0.0	17.066484525345246	1.4835541589292427	0.0	17.07974237241455	1.3462074705367866	0.0	16.903314541459906	1.1312225192341192	0.0	16.76728303423381	0.868775966431404	0.0	16.94293126206497	0.7368896565611761	0.0	17.234822421765674	1.1672563918727923	0.0	17.24917922679686	0.9554595545598329	0.0	17.250976903714587	0.8356175420954463	0.0
